<mxfile host="app.diagrams.net" agent="Mozilla/5.0 (Windows NT 10.0; Win64; x64) AppleWebKit/537.36 (KHTML, like Gecko) Chrome/131.0.0.0 Safari/537.36" version="25.0.3">
  <diagram name="Sayfa -1" id="I3E2D-fKD2uTysnvvCk9">
    <mxGraphModel dx="2234" dy="1146" grid="0" gridSize="10" guides="1" tooltips="1" connect="1" arrows="1" fold="1" page="0" pageScale="1" pageWidth="827" pageHeight="1169" math="0" shadow="0">
      <root>
        <mxCell id="0" />
        <mxCell id="1" parent="0" />
        <mxCell id="FyE42bV6pMRHhxCbuQlU-3" value="" style="edgeStyle=none;curved=1;rounded=0;orthogonalLoop=1;jettySize=auto;html=1;fontSize=12;startSize=8;endSize=8;" parent="1" source="EjiDBl4ryGXT1y-goV6G-1" target="FyE42bV6pMRHhxCbuQlU-2" edge="1">
          <mxGeometry relative="1" as="geometry" />
        </mxCell>
        <mxCell id="EjiDBl4ryGXT1y-goV6G-1" value="Müşteri&amp;nbsp;" style="ellipse;whiteSpace=wrap;html=1;" parent="1" vertex="1">
          <mxGeometry x="175" y="-87" width="80" height="80" as="geometry" />
        </mxCell>
        <mxCell id="FyE42bV6pMRHhxCbuQlU-1" value="Tedarikci" style="ellipse;whiteSpace=wrap;html=1;" parent="1" vertex="1">
          <mxGeometry x="289" y="-87" width="80" height="80" as="geometry" />
        </mxCell>
        <mxCell id="FyE42bV6pMRHhxCbuQlU-5" value="" style="edgeStyle=none;curved=1;rounded=0;orthogonalLoop=1;jettySize=auto;html=1;fontSize=12;startSize=8;endSize=8;" parent="1" source="FyE42bV6pMRHhxCbuQlU-2" target="FyE42bV6pMRHhxCbuQlU-4" edge="1">
          <mxGeometry relative="1" as="geometry" />
        </mxCell>
        <mxCell id="RrLERUCqL4qP3EQ1UaGa-2" value="" style="edgeStyle=none;curved=1;rounded=0;orthogonalLoop=1;jettySize=auto;html=1;fontSize=12;startSize=8;endSize=8;" parent="1" source="FyE42bV6pMRHhxCbuQlU-2" target="RrLERUCqL4qP3EQ1UaGa-1" edge="1">
          <mxGeometry relative="1" as="geometry" />
        </mxCell>
        <mxCell id="FyE42bV6pMRHhxCbuQlU-2" value="Satin alinacak maddeler yazilacak" style="whiteSpace=wrap;html=1;" parent="1" vertex="1">
          <mxGeometry x="115" y="18" width="120" height="60" as="geometry" />
        </mxCell>
        <mxCell id="RrLERUCqL4qP3EQ1UaGa-4" value="" style="edgeStyle=none;curved=1;rounded=0;orthogonalLoop=1;jettySize=auto;html=1;fontSize=12;startSize=8;endSize=8;" parent="1" source="FyE42bV6pMRHhxCbuQlU-4" target="RrLERUCqL4qP3EQ1UaGa-3" edge="1">
          <mxGeometry relative="1" as="geometry" />
        </mxCell>
        <mxCell id="RrLERUCqL4qP3EQ1UaGa-5" value="" style="edgeStyle=none;curved=1;rounded=0;orthogonalLoop=1;jettySize=auto;html=1;fontSize=12;startSize=8;endSize=8;" parent="1" source="FyE42bV6pMRHhxCbuQlU-4" target="RrLERUCqL4qP3EQ1UaGa-3" edge="1">
          <mxGeometry relative="1" as="geometry" />
        </mxCell>
        <mxCell id="RrLERUCqL4qP3EQ1UaGa-6" value="" style="edgeStyle=none;curved=1;rounded=0;orthogonalLoop=1;jettySize=auto;html=1;fontSize=12;startSize=8;endSize=8;" parent="1" source="FyE42bV6pMRHhxCbuQlU-4" target="RrLERUCqL4qP3EQ1UaGa-3" edge="1">
          <mxGeometry relative="1" as="geometry" />
        </mxCell>
        <mxCell id="RrLERUCqL4qP3EQ1UaGa-7" value="" style="edgeStyle=none;curved=1;rounded=0;orthogonalLoop=1;jettySize=auto;html=1;fontSize=12;startSize=8;endSize=8;" parent="1" source="FyE42bV6pMRHhxCbuQlU-4" target="RrLERUCqL4qP3EQ1UaGa-3" edge="1">
          <mxGeometry relative="1" as="geometry" />
        </mxCell>
        <mxCell id="RrLERUCqL4qP3EQ1UaGa-10" value="" style="edgeStyle=none;curved=1;rounded=0;orthogonalLoop=1;jettySize=auto;html=1;fontSize=12;startSize=8;endSize=8;" parent="1" source="FyE42bV6pMRHhxCbuQlU-4" target="RrLERUCqL4qP3EQ1UaGa-3" edge="1">
          <mxGeometry relative="1" as="geometry" />
        </mxCell>
        <mxCell id="RrLERUCqL4qP3EQ1UaGa-12" style="edgeStyle=none;curved=1;rounded=0;orthogonalLoop=1;jettySize=auto;html=1;entryX=0.5;entryY=0;entryDx=0;entryDy=0;fontSize=12;startSize=8;endSize=8;" parent="1" target="RrLERUCqL4qP3EQ1UaGa-11" edge="1">
          <mxGeometry relative="1" as="geometry">
            <mxPoint x="203.2439024390244" y="194" as="sourcePoint" />
          </mxGeometry>
        </mxCell>
        <mxCell id="FyE42bV6pMRHhxCbuQlU-4" value="Maddeler listelenecek listelenen maddelerin durum / personel / firma bilgileri girilecek" style="whiteSpace=wrap;html=1;" parent="1" vertex="1">
          <mxGeometry x="115" y="134" width="120" height="60" as="geometry" />
        </mxCell>
        <mxCell id="RrLERUCqL4qP3EQ1UaGa-1" value="1- 200 adet yangın tupu&lt;div&gt;2- 100 adet is ayakkabisi&lt;/div&gt;&lt;div&gt;3- 30 adet yelek&lt;/div&gt;&lt;div&gt;4- 100 adet muhendis yelegi&lt;/div&gt;&lt;div&gt;5- 30 adet baret&lt;br&gt;&lt;div&gt;&lt;br&gt;&lt;/div&gt;&lt;/div&gt;" style="ellipse;shape=cloud;whiteSpace=wrap;html=1;" parent="1" vertex="1">
          <mxGeometry x="-155" y="-27" width="228" height="175" as="geometry" />
        </mxCell>
        <mxCell id="RrLERUCqL4qP3EQ1UaGa-14" value="" style="edgeStyle=none;curved=1;rounded=0;orthogonalLoop=1;jettySize=auto;html=1;fontSize=12;startSize=8;endSize=8;" parent="1" source="RrLERUCqL4qP3EQ1UaGa-3" target="RrLERUCqL4qP3EQ1UaGa-13" edge="1">
          <mxGeometry relative="1" as="geometry" />
        </mxCell>
        <mxCell id="RrLERUCqL4qP3EQ1UaGa-3" value="&lt;b&gt;[TEKLİF AL]&lt;/b&gt;&lt;br&gt;Urunle ilgili teklif alinacak" style="whiteSpace=wrap;html=1;" parent="1" vertex="1">
          <mxGeometry x="17" y="246" width="120" height="60" as="geometry" />
        </mxCell>
        <mxCell id="5AZsvfU4Qy47yrpIjcS5-2" value="" style="edgeStyle=orthogonalEdgeStyle;rounded=0;orthogonalLoop=1;jettySize=auto;html=1;" parent="1" source="RrLERUCqL4qP3EQ1UaGa-11" target="5AZsvfU4Qy47yrpIjcS5-1" edge="1">
          <mxGeometry relative="1" as="geometry" />
        </mxCell>
        <mxCell id="RrLERUCqL4qP3EQ1UaGa-11" value="&lt;b&gt;[SİPARİŞ VER]&lt;/b&gt;&lt;br&gt;Urun direkt siparis edilecek" style="whiteSpace=wrap;html=1;" parent="1" vertex="1">
          <mxGeometry x="175" y="246" width="120" height="60" as="geometry" />
        </mxCell>
        <mxCell id="JWgQweDf2uA80NxqjfRh-2" value="" style="edgeStyle=orthogonalEdgeStyle;rounded=0;orthogonalLoop=1;jettySize=auto;html=1;" parent="1" source="RrLERUCqL4qP3EQ1UaGa-13" target="JWgQweDf2uA80NxqjfRh-1" edge="1">
          <mxGeometry relative="1" as="geometry" />
        </mxCell>
        <mxCell id="RrLERUCqL4qP3EQ1UaGa-13" value="Teklifi alacak Personel secilecek." style="whiteSpace=wrap;html=1;" parent="1" vertex="1">
          <mxGeometry x="17" y="370" width="120" height="60" as="geometry" />
        </mxCell>
        <mxCell id="5AZsvfU4Qy47yrpIjcS5-4" value="" style="edgeStyle=orthogonalEdgeStyle;rounded=0;orthogonalLoop=1;jettySize=auto;html=1;" parent="1" source="5AZsvfU4Qy47yrpIjcS5-1" target="5AZsvfU4Qy47yrpIjcS5-3" edge="1">
          <mxGeometry relative="1" as="geometry" />
        </mxCell>
        <mxCell id="5AZsvfU4Qy47yrpIjcS5-1" value="Sipariş verilecek adet ve bir yada birden fazla firma seçilecek" style="whiteSpace=wrap;html=1;" parent="1" vertex="1">
          <mxGeometry x="175" y="372" width="120" height="60" as="geometry" />
        </mxCell>
        <mxCell id="JWgQweDf2uA80NxqjfRh-12" value="" style="edgeStyle=orthogonalEdgeStyle;rounded=0;orthogonalLoop=1;jettySize=auto;html=1;" parent="1" source="5AZsvfU4Qy47yrpIjcS5-3" target="JWgQweDf2uA80NxqjfRh-11" edge="1">
          <mxGeometry relative="1" as="geometry" />
        </mxCell>
        <mxCell id="5AZsvfU4Qy47yrpIjcS5-3" value="Bir sonraki adımda işi takip edecek personel LER seçilecek." style="whiteSpace=wrap;html=1;" parent="1" vertex="1">
          <mxGeometry x="175" y="491" width="120" height="60" as="geometry" />
        </mxCell>
        <mxCell id="5AZsvfU4Qy47yrpIjcS5-26" value="" style="line;strokeWidth=4;html=1;perimeter=backbonePerimeter;points=[];outlineConnect=0;" parent="1" vertex="1">
          <mxGeometry x="-530" y="927" width="1410" height="10" as="geometry" />
        </mxCell>
        <mxCell id="5AZsvfU4Qy47yrpIjcS5-27" value="&lt;h2&gt;&lt;b&gt;&lt;font style=&quot;font-size: 21px; line-height: 220%;&quot;&gt;SİPARİŞ AŞAMASI&lt;/font&gt;&lt;/b&gt;&lt;/h2&gt;" style="shape=rect;dashed=0;shadow=0;html=1;whiteSpace=wrap;direction=south;horizontal=0;fillColor=#fff2cc;strokeColor=#d6b656;" parent="1" vertex="1">
          <mxGeometry x="-333" y="82" width="52" height="350" as="geometry" />
        </mxCell>
        <mxCell id="JWgQweDf2uA80NxqjfRh-4" value="" style="edgeStyle=orthogonalEdgeStyle;rounded=0;orthogonalLoop=1;jettySize=auto;html=1;" parent="1" source="JWgQweDf2uA80NxqjfRh-1" target="JWgQweDf2uA80NxqjfRh-3" edge="1">
          <mxGeometry relative="1" as="geometry" />
        </mxCell>
        <mxCell id="JWgQweDf2uA80NxqjfRh-1" value="İlgili personel önce iş adımında kendini yetkilendirecek bir sonraki adımda ilgili firmaları belirterek teklif isteyecek" style="whiteSpace=wrap;html=1;" parent="1" vertex="1">
          <mxGeometry x="-230" y="459" width="160" height="98" as="geometry" />
        </mxCell>
        <mxCell id="JWgQweDf2uA80NxqjfRh-10" value="" style="edgeStyle=orthogonalEdgeStyle;rounded=0;orthogonalLoop=1;jettySize=auto;html=1;" parent="1" source="JWgQweDf2uA80NxqjfRh-3" target="JWgQweDf2uA80NxqjfRh-9" edge="1">
          <mxGeometry relative="1" as="geometry" />
        </mxCell>
        <mxCell id="JWgQweDf2uA80NxqjfRh-3" value="Teklif iletilenler ve gelen teklifler sistem üzerinde görüntülenecek ve neticelenen teklif rakamları sistem üzerinde görüntülenecek" style="whiteSpace=wrap;html=1;" parent="1" vertex="1">
          <mxGeometry x="-293" y="656" width="203" height="81" as="geometry" />
        </mxCell>
        <mxCell id="JWgQweDf2uA80NxqjfRh-9" value="Onaylanan teklifler üzerinden sipariş adımları oluşturulacak" style="whiteSpace=wrap;html=1;" parent="1" vertex="1">
          <mxGeometry x="-266" y="809" width="149" height="75" as="geometry" />
        </mxCell>
        <mxCell id="JWgQweDf2uA80NxqjfRh-14" value="" style="edgeStyle=orthogonalEdgeStyle;rounded=0;orthogonalLoop=1;jettySize=auto;html=1;" parent="1" source="JWgQweDf2uA80NxqjfRh-11" target="JWgQweDf2uA80NxqjfRh-13" edge="1">
          <mxGeometry relative="1" as="geometry" />
        </mxCell>
        <mxCell id="JWgQweDf2uA80NxqjfRh-11" value="Oluşturulan siparişlerle ilgili firma profilindeki öngörülen sevkiyat takvimine bağlı olarak standart hatırlatıcı oluşturulacak." style="whiteSpace=wrap;html=1;" parent="1" vertex="1">
          <mxGeometry x="133" y="994" width="204" height="85" as="geometry" />
        </mxCell>
        <mxCell id="JWgQweDf2uA80NxqjfRh-16" value="" style="edgeStyle=orthogonalEdgeStyle;rounded=0;orthogonalLoop=1;jettySize=auto;html=1;" parent="1" source="JWgQweDf2uA80NxqjfRh-13" target="JWgQweDf2uA80NxqjfRh-15" edge="1">
          <mxGeometry relative="1" as="geometry" />
        </mxCell>
        <mxCell id="JWgQweDf2uA80NxqjfRh-13" value="Bu hatırlatıcı takvim üzerinden güncellenebilecek ya da hatırlatma yapıldıği takdirde ertelenebilecek" style="whiteSpace=wrap;html=1;" parent="1" vertex="1">
          <mxGeometry x="132" y="1176" width="206" height="70.5" as="geometry" />
        </mxCell>
        <mxCell id="P3OtiobJrho4AVTBDznn-4" value="" style="edgeStyle=orthogonalEdgeStyle;rounded=0;orthogonalLoop=1;jettySize=auto;html=1;" edge="1" parent="1" source="JWgQweDf2uA80NxqjfRh-15" target="P3OtiobJrho4AVTBDznn-3">
          <mxGeometry relative="1" as="geometry" />
        </mxCell>
        <mxCell id="JWgQweDf2uA80NxqjfRh-15" value="Projeler firma, personel ve takvim bazlı listelenebilecek" style="whiteSpace=wrap;html=1;" parent="1" vertex="1">
          <mxGeometry x="175" y="1331.75" width="120" height="60" as="geometry" />
        </mxCell>
        <mxCell id="LzY7oRYEFkuAUDhhu2o3-1" value="Footer menü Müşteri, Tedarikçi, Personel Bana Özel olarak belirlenebilir" style="text;html=1;align=center;verticalAlign=middle;whiteSpace=wrap;rounded=0;" parent="1" vertex="1">
          <mxGeometry x="628" y="-103" width="60" height="30" as="geometry" />
        </mxCell>
        <mxCell id="P3OtiobJrho4AVTBDznn-9" value="" style="edgeStyle=orthogonalEdgeStyle;rounded=0;orthogonalLoop=1;jettySize=auto;html=1;" edge="1" parent="1" source="P3OtiobJrho4AVTBDznn-3" target="P3OtiobJrho4AVTBDznn-8">
          <mxGeometry relative="1" as="geometry" />
        </mxCell>
        <mxCell id="P3OtiobJrho4AVTBDznn-3" value="Sipariş verdiğin ürün tedarikçiden geldi diyelim. Beklemede modunda kalacak. Eğer müşteri erken teslimat istiyorsa sevkiyatı gerçekleştirilecek" style="whiteSpace=wrap;html=1;" vertex="1" parent="1">
          <mxGeometry x="115" y="1570" width="240" height="87" as="geometry" />
        </mxCell>
        <mxCell id="P3OtiobJrho4AVTBDznn-5" value="" style="line;strokeWidth=4;html=1;perimeter=backbonePerimeter;points=[];outlineConnect=0;" vertex="1" parent="1">
          <mxGeometry x="-530" y="1467" width="1410" height="10" as="geometry" />
        </mxCell>
        <mxCell id="P3OtiobJrho4AVTBDznn-6" value="Talep&lt;br&gt;Teklif&lt;br&gt;Müşteri Bekleniyor&lt;br&gt;Sipariş Verilecek&lt;br&gt;Sipariş Verildi&lt;br&gt;Sipariş Kısmen Geldi&lt;br&gt;Sipariş Tamamlandı&lt;br&gt;Kısmen Kargolandı&lt;br&gt;Kargolandı&lt;br&gt;Kısmen Teslim Edildi&lt;br&gt;Teslim Edildi&lt;br&gt;Kısmen İade&lt;br&gt;İade&lt;br&gt;Hasarlı Ürün&lt;br&gt;Tedarikçiye Gönderildi&lt;br&gt;Tedarikçi Bekleniyor" style="text;html=1;align=center;verticalAlign=middle;whiteSpace=wrap;rounded=0;" vertex="1" parent="1">
          <mxGeometry x="623" y="18" width="141" height="236" as="geometry" />
        </mxCell>
        <mxCell id="P3OtiobJrho4AVTBDznn-7" value="&lt;div&gt;BAŞLANGIÇ&lt;/div&gt;&lt;div&gt;PLANLAMA&lt;/div&gt;&lt;div&gt;YÜRÜTME&lt;/div&gt;&lt;div&gt;İZLEME KONTROL&lt;/div&gt;&lt;div&gt;KAPANIŞ&lt;/div&gt;" style="text;html=1;align=center;verticalAlign=middle;whiteSpace=wrap;rounded=0;" vertex="1" parent="1">
          <mxGeometry x="638" y="-284" width="60" height="30" as="geometry" />
        </mxCell>
        <mxCell id="P3OtiobJrho4AVTBDznn-8" value="Sevkiyat sürecinde kargomu? kendi teslimatımı olduğu seçilebilecek. Kargo ise ön talep sistem üzerinden oluşturulacak." style="whiteSpace=wrap;html=1;" vertex="1" parent="1">
          <mxGeometry x="132" y="1748" width="206" height="90.5" as="geometry" />
        </mxCell>
      </root>
    </mxGraphModel>
  </diagram>
</mxfile>
